<svg aria-hidden="true" style="position: absolute; width: 0; height: 0; overflow: hidden;" version="1.1" xmlns="http://www.w3.org/2000/svg" xmlns:xlink="http://www.w3.org/1999/xlink">
<defs>
<symbol id="icon-comment" viewBox="0 0 24 24">
<path d="M18 8.016v-2.016h-12v2.016h12zM18 11.016v-2.016h-12v2.016h12zM18 14.016v-2.016h-12v2.016h12zM21.984 3.984v18l-3.984-3.984h-14.016q-0.797 0-1.383-0.609t-0.586-1.406v-12q0-0.797 0.586-1.383t1.383-0.586h16.031q0.797 0 1.383 0.586t0.586 1.383z"></path>
</symbol>
<symbol id="icon-notifications_on" viewBox="0 0 24 24">
<path d="M12 21.984q-0.844 0-1.43-0.586t-0.586-1.383h3.984q0 0.844-0.563 1.406t-1.406 0.563zM18 11.016v4.969l2.016 2.016v0.984h-16.031v-0.984l2.016-2.016v-4.969q0-2.344 1.195-4.078t3.305-2.25v-0.703q0-0.609 0.422-1.055t1.078-0.445 1.078 0.445 0.422 1.055v0.703q2.109 0.516 3.305 2.25t1.195 4.078zM19.969 10.5q-0.094-1.688-1.125-3.563t-2.391-2.859l1.406-1.406q3.891 3 4.125 7.828h-2.016zM7.594 4.078q-1.359 0.984-2.414 2.859t-1.148 3.563h-2.016q0.234-4.828 4.125-7.828z"></path>
</symbol>
<symbol id="icon-person" viewBox="0 0 24 24">
<path d="M12 14.016q2.531 0 5.273 1.102t2.742 2.883v2.016h-16.031v-2.016q0-1.781 2.742-2.883t5.273-1.102zM12 12q-1.641 0-2.813-1.172t-1.172-2.813 1.172-2.836 2.813-1.195 2.813 1.195 1.172 2.836-1.172 2.813-2.813 1.172z"></path>
</symbol>
<symbol id="icon-share" viewBox="0 0 24 24">
<path d="M18 16.078q1.219 0 2.063 0.867t0.844 2.039q0 1.219-0.867 2.086t-2.039 0.867-2.039-0.867-0.867-2.086q0-0.469 0.047-0.656l-7.078-4.125q-0.891 0.797-2.063 0.797-1.219 0-2.109-0.891t-0.891-2.109 0.891-2.109 2.109-0.891q1.172 0 2.063 0.797l7.031-4.078q-0.094-0.469-0.094-0.703 0-1.219 0.891-2.109t2.109-0.891 2.109 0.891 0.891 2.109-0.891 2.109-2.109 0.891q-1.125 0-2.063-0.844l-7.031 4.125q0.094 0.469 0.094 0.703t-0.094 0.703l7.125 4.125q0.844-0.75 1.969-0.75z"></path>
</symbol>
<symbol id="icon-dashboard" viewBox="0 0 24 24">
<path d="M12.984 3h8.016v6h-8.016v-6zM12.984 21v-9.984h8.016v9.984h-8.016zM3 21v-6h8.016v6h-8.016zM3 12.984v-9.984h8.016v9.984h-8.016z"></path>
</symbol>
<symbol id="icon-favorite_outline" viewBox="0 0 24 24">
<path d="M12.094 18.563q2.25-2.016 3.328-3.047t2.344-2.438 1.758-2.484 0.492-2.109q0-1.5-1.008-2.484t-2.508-0.984q-1.172 0-2.18 0.656t-1.383 1.688h-1.875q-0.375-1.031-1.383-1.688t-2.18-0.656q-1.5 0-2.508 0.984t-1.008 2.484q0 1.031 0.492 2.109t1.758 2.484 2.344 2.438 3.328 3.047l0.094 0.094zM16.5 3q2.344 0 3.914 1.594t1.57 3.891q0 1.359-0.516 2.648t-1.898 2.883-2.508 2.672-3.609 3.328l-1.453 1.313-1.453-1.266q-3.234-2.906-4.664-4.359t-2.648-3.422-1.219-3.797q0-2.297 1.57-3.891t3.914-1.594q2.719 0 4.5 2.109 1.781-2.109 4.5-2.109z"></path>
</symbol>
<symbol id="icon-help" viewBox="0 0 24 24">
<path d="M15.047 11.25q0.938-0.938 0.938-2.25 0-1.641-1.172-2.813t-2.813-1.172-2.813 1.172-1.172 2.813h1.969q0-0.797 0.609-1.406t1.406-0.609 1.406 0.609 0.609 1.406-0.609 1.406l-1.219 1.266q-1.172 1.266-1.172 2.813v0.516h1.969q0-1.547 1.172-2.813zM12.984 18.984v-1.969h-1.969v1.969h1.969zM12 2.016q4.125 0 7.055 2.93t2.93 7.055-2.93 7.055-7.055 2.93-7.055-2.93-2.93-7.055 2.93-7.055 7.055-2.93z"></path>
</symbol>
<symbol id="icon-history" viewBox="0 0 24 24">
<path d="M12 8.016h1.5v4.219l3.516 2.109-0.75 1.219-4.266-2.578v-4.969zM12.984 3q3.703 0 6.352 2.625t2.648 6.375-2.648 6.375-6.352 2.625q-1.547 0-3.398-0.773t-2.93-1.852l1.406-1.453q2.063 2.063 4.922 2.063 2.906 0 4.969-2.039t2.063-4.945-2.063-4.945-4.969-2.039-4.945 2.039-2.039 4.945h3l-4.031 4.031-0.094-0.141-3.891-3.891h3q0-3.75 2.648-6.375t6.352-2.625z"></path>
</symbol>
<symbol id="icon-home" viewBox="0 0 24 24">
<path d="M9.984 20.016h-4.969v-8.016h-3l9.984-9 9.984 9h-3v8.016h-4.969v-6h-4.031v6z"></path>
</symbol>
<symbol id="icon-perm_contact_calendar" viewBox="0 0 24 24">
<path d="M18 18v-0.984q0-1.359-2.063-2.227t-3.938-0.867-3.938 0.867-2.063 2.227v0.984h12zM12 6q-1.219 0-2.109 0.891t-0.891 2.109 0.891 2.109 2.109 0.891 2.109-0.891 0.891-2.109-0.891-2.109-2.109-0.891zM18.984 3q0.797 0 1.406 0.609t0.609 1.406v13.969q0 0.797-0.609 1.406t-1.406 0.609h-13.969q-0.844 0-1.43-0.586t-0.586-1.43v-13.969q0-0.844 0.586-1.43t1.43-0.586h0.984v-2.016h2.016v2.016h7.969v-2.016h2.016v2.016h0.984z"></path>
</symbol>
<symbol id="icon-search" viewBox="0 0 24 24">
<path d="M9.516 14.016q1.875 0 3.188-1.313t1.313-3.188-1.313-3.188-3.188-1.313-3.188 1.313-1.313 3.188 1.313 3.188 3.188 1.313zM15.516 14.016l4.969 4.969-1.5 1.5-4.969-4.969v-0.797l-0.281-0.281q-1.781 1.547-4.219 1.547-2.719 0-4.617-1.875t-1.898-4.594 1.898-4.617 4.617-1.898 4.594 1.898 1.875 4.617q0 0.984-0.469 2.227t-1.078 1.992l0.281 0.281h0.797z"></path>
</symbol>
<symbol id="icon-settings" viewBox="0 0 24 24">
<path d="M12 15.516q1.453 0 2.484-1.031t1.031-2.484-1.031-2.484-2.484-1.031-2.484 1.031-1.031 2.484 1.031 2.484 2.484 1.031zM19.453 12.984l2.109 1.641q0.328 0.234 0.094 0.656l-2.016 3.469q-0.188 0.328-0.609 0.188l-2.484-0.984q-0.984 0.703-1.688 0.984l-0.375 2.625q-0.094 0.422-0.469 0.422h-4.031q-0.375 0-0.469-0.422l-0.375-2.625q-0.891-0.375-1.688-0.984l-2.484 0.984q-0.422 0.141-0.609-0.188l-2.016-3.469q-0.234-0.422 0.094-0.656l2.109-1.641q-0.047-0.328-0.047-0.984t0.047-0.984l-2.109-1.641q-0.328-0.234-0.094-0.656l2.016-3.469q0.188-0.328 0.609-0.188l2.484 0.984q0.984-0.703 1.688-0.984l0.375-2.625q0.094-0.422 0.469-0.422h4.031q0.375 0 0.469 0.422l0.375 2.625q0.891 0.375 1.688 0.984l2.484-0.984q0.422-0.141 0.609 0.188l2.016 3.469q0.234 0.422-0.094 0.656l-2.109 1.641q0.047 0.328 0.047 0.984t-0.047 0.984z"></path>
</symbol>
<symbol id="icon-verified_user" viewBox="0 0 24 24">
<path d="M9.984 17.016l8.016-8.016-1.406-1.406-6.609 6.563-2.578-2.578-1.406 1.406zM12 0.984l9 4.031v6q0 4.172-2.578 7.617t-6.422 4.383q-3.844-0.938-6.422-4.383t-2.578-7.617v-6z"></path>
</symbol>
<symbol id="icon-bookmarks" viewBox="0 0 24 24">
<path d="M15 5.016q0.797 0 1.406 0.586t0.609 1.383v16.031l-7.031-3-6.984 3v-16.031q0-0.797 0.609-1.383t1.406-0.586h9.984zM18.984 18v-12.984q0-0.797-0.586-1.406t-1.383-0.609h-10.031q0-0.797 0.609-1.406t1.406-0.609h9.984q0.797 0 1.406 0.609t0.609 1.406v15.984z"></path>
</symbol>
<symbol id="icon-library_add_check" viewBox="0 0 24 24">
<path d="M3.984 6v14.016h14.016v1.969h-14.016q-0.797 0-1.383-0.586t-0.586-1.383v-14.016h1.969zM12.469 14.016l6.516-6.609-1.406-1.406-5.109 5.156-2.063-2.063-1.406 1.406zM20.016 2.016q0.797 0 1.383 0.586t0.586 1.383v12q0 0.797-0.586 1.406t-1.383 0.609h-12q-0.797 0-1.406-0.609t-0.609-1.406v-12q0-0.797 0.609-1.383t1.406-0.586h12z"></path>
</symbol>
<symbol id="icon-groups" viewBox="0 0 24 24">
<path d="M12 12.75q1.219 0 2.297 0.258t1.922 0.633 1.313 1.125 0.469 1.594v1.641h-12v-1.594q0-0.891 0.469-1.641t1.313-1.125 1.922-0.633 2.297-0.258zM3.984 12.984q0.844 0 1.43-0.586t0.586-1.383q0-0.844-0.586-1.43t-1.43-0.586q-0.797 0-1.383 0.586t-0.586 1.43q0 0.797 0.586 1.383t1.383 0.586zM5.109 14.109q-0.234-0.047-0.516-0.070t-0.609-0.023q-0.75 0-1.43 0.141t-1.336 0.422q-0.563 0.234-0.891 0.75t-0.328 1.125v1.547h4.5v-1.594q0-1.219 0.609-2.297zM20.016 12.984q0.797 0 1.383-0.586t0.586-1.383q0-0.844-0.586-1.43t-1.383-0.586q-0.844 0-1.43 0.586t-0.586 1.43q0 0.797 0.586 1.383t1.43 0.586zM24 16.453q0-0.609-0.328-1.125t-0.891-0.75q-0.656-0.281-1.336-0.422t-1.43-0.141q-0.328 0-0.609 0.023t-0.516 0.070q0.609 1.078 0.609 2.297v1.594h4.5v-1.547zM12 6q0.844 0 1.523 0.398t1.078 1.078 0.398 1.523-0.398 1.523-1.078 1.078-1.523 0.398-1.523-0.398-1.078-1.078-0.398-1.523 0.398-1.523 1.078-1.078 1.523-0.398z"></path>
</symbol>
<symbol id="icon-eye-plus" viewBox="0 0 32 32">
<path d="M32 4h-4v-4h-4v4h-4v4h4v4h4v-4h4z"></path>
<path d="M26.996 13.938c0.576 0.64 1.1 1.329 1.563 2.062-1.197 1.891-2.79 3.498-4.67 4.697-2.362 1.507-5.090 2.303-7.889 2.303s-5.527-0.796-7.889-2.303c-1.88-1.199-3.473-2.805-4.67-4.697 1.197-1.891 2.79-3.498 4.67-4.697 0.122-0.078 0.246-0.154 0.371-0.228-0.311 0.854-0.482 1.776-0.482 2.737 0 4.418 3.582 8 8 8s8-3.582 8-8c0-0.022-0.001-0.043-0.001-0.065-3.415-0.879-5.947-3.957-5.998-7.635-0.657-0.074-1.325-0.113-2.001-0.113-6.979 0-13.028 4.064-16 10 2.972 5.936 9.021 10 16 10s13.027-4.064 16-10c-0.551-1.101-1.209-2.137-1.958-3.095-0.915 0.537-1.946 0.897-3.046 1.034zM13 10c1.657 0 3 1.343 3 3s-1.343 3-3 3-3-1.343-3-3 1.343-3 3-3z"></path>
</symbol>
</defs>
</svg>
